<?xml version="1.0" encoding="UTF-8" standalone="no"?>
<svg
   xmlns:dc="http://purl.org/dc/elements/1.1/"
   xmlns:cc="http://creativecommons.org/ns#"
   xmlns:rdf="http://www.w3.org/1999/02/22-rdf-syntax-ns#"
   xmlns:svg="http://www.w3.org/2000/svg"
   xmlns="http://www.w3.org/2000/svg"
   xmlns:sodipodi="http://sodipodi.sourceforge.net/DTD/sodipodi-0.dtd"
   xmlns:inkscape="http://www.inkscape.org/namespaces/inkscape"
   width="5.68889in"
   height="5.68889in"
   viewBox="0 0 512 512"
   version="1.1"
   id="svg110"
   sodipodi:docname="bE.svg"
   inkscape:version="1.0.1 (c497b03c, 2020-09-10)">
  <metadata
     id="metadata116">
    <rdf:RDF>
      <cc:Work
         rdf:about="">
        <dc:format>image/svg+xml</dc:format>
        <dc:type
           rdf:resource="http://purl.org/dc/dcmitype/StillImage" />
        <dc:title></dc:title>
      </cc:Work>
    </rdf:RDF>
  </metadata>
  <defs
     id="defs114" />
  <sodipodi:namedview
     pagecolor="#ffffff"
     bordercolor="#666666"
     borderopacity="1"
     objecttolerance="10"
     gridtolerance="10"
     guidetolerance="10"
     inkscape:pageopacity="0"
     inkscape:pageshadow="2"
     inkscape:window-width="1250"
     inkscape:window-height="1034"
     id="namedview112"
     showgrid="false"
     inkscape:zoom="1.6314694"
     inkscape:cx="273.06672"
     inkscape:cy="273.06672"
     inkscape:window-x="0"
     inkscape:window-y="23"
     inkscape:window-maximized="0"
     inkscape:current-layer="svg110" />
  <path
     id="Selection #1"
     fill="none"
     stroke="black"
     stroke-width="1"
     d="M 165.00,297.00            C 150.05,303.43 153.33,301.95 138.00,301.09              126.28,300.43 120.31,309.58 127.42,319.00              132.21,325.35 139.63,329.62 147.00,332.31              170.85,340.99 193.73,333.73 212.00,317.00              212.00,317.00 216.00,357.00 216.00,357.00              216.00,357.00 217.00,377.00 217.00,377.00              217.00,377.00 216.00,392.00 216.00,392.00              215.98,405.86 217.16,415.05 222.62,428.00              243.22,476.93 310.11,487.86 346.99,450.99              357.03,440.94 364.70,426.95 367.55,413.00              367.55,413.00 369.59,395.00 369.59,395.00              370.80,391.59 373.51,389.92 374.78,386.00              375.03,384.29 374.99,381.80 374.78,380.00              375.03,373.05 375.96,367.18 368.98,363.09              365.21,360.87 361.21,361.01 357.00,361.00              357.00,361.00 322.00,361.00 322.00,361.00              315.86,361.01 308.85,361.06 305.30,367.09              302.59,371.70 302.41,381.00 304.11,386.00              305.29,389.50 309.00,394.05 304.76,396.95              300.64,399.76 296.35,396.10 295.16,392.00              294.94,390.54 295.00,387.59 295.16,386.00              294.96,366.99 294.62,335.96 299.00,318.00              305.08,322.06 310.37,326.42 317.00,329.73              330.78,336.62 346.31,337.69 361.00,333.28              369.13,330.84 379.33,325.40 383.71,318.00              386.28,314.03 387.08,308.04 383.71,304.42              378.19,298.85 368.78,302.13 362.00,301.98              355.05,301.84 352.16,299.65 346.00,297.00              346.00,297.00 385.00,285.66 385.00,285.66              407.48,277.85 428.56,266.48 447.00,251.39              459.76,240.95 474.35,226.13 482.93,212.00              486.62,205.93 485.51,204.24 488.00,200.00              488.00,200.00 494.45,191.00 494.45,191.00              501.98,177.77 511.82,154.28 512.00,139.00              512.05,134.01 512.17,129.80 510.45,125.00              506.30,113.37 491.65,105.10 482.00,97.87              482.00,97.87 436.00,64.29 436.00,64.29              414.96,49.23 403.62,38.68 376.00,39.00              365.73,39.12 330.75,47.49 319.00,50.37              319.00,50.37 297.27,55.00 297.27,55.00              297.27,55.00 281.00,49.43 281.00,49.43              268.77,45.94 264.36,45.98 252.00,46.00              243.15,46.01 234.44,47.83 226.00,50.44              220.47,52.15 216.94,55.11 211.00,54.35              211.00,54.35 192.00,50.13 192.00,50.13              180.25,47.28 146.28,39.12 136.00,39.00              108.41,38.69 97.00,49.26 76.00,64.29              76.00,64.29 30.00,97.87 30.00,97.87              20.35,105.10 5.70,113.37 1.55,125.00              -0.17,129.80 -0.05,134.01 0.00,139.00              0.12,148.86 5.54,164.66 9.20,174.00              21.30,204.81 38.67,229.29 64.00,250.71              80.19,264.39 103.93,277.69 124.00,284.66              124.00,284.66 142.00,290.57 142.00,290.57              148.89,292.54 158.94,294.14 165.00,297.00 Z            M 196.00,67.00            C 191.59,72.87 184.45,77.54 179.01,83.00              176.86,85.17 173.98,89.02 170.91,89.52              168.63,89.88 159.81,87.60 157.00,87.00              143.36,84.08 146.28,83.98 132.00,84.00              115.11,84.03 104.00,90.76 89.00,97.15              89.00,97.15 32.00,117.00 32.00,117.00              36.70,111.36 55.91,98.33 63.00,93.12              63.00,93.12 91.00,72.63 91.00,72.63              96.13,68.82 105.42,61.82 111.00,59.46              122.01,54.82 127.44,54.87 139.00,55.00              145.94,55.09 154.15,57.49 161.00,59.12              161.00,59.12 196.00,67.00 196.00,67.00 Z            M 480.00,117.00            C 480.00,117.00 423.00,97.15 423.00,97.15              408.00,90.76 396.89,84.03 380.00,84.00              365.56,83.98 367.83,84.23 354.00,87.21              350.92,87.87 342.73,90.10 340.04,89.60              336.72,88.97 334.28,85.34 331.96,83.04              326.17,77.28 319.88,73.76 315.00,67.00              315.00,67.00 373.00,55.00 373.00,55.00              382.24,54.90 386.99,54.55 396.00,57.52              405.75,60.73 413.84,67.34 422.00,73.37              422.00,73.37 450.00,93.87 450.00,93.87              457.24,99.29 475.10,111.12 480.00,117.00 Z            M 354.00,395.00            C 353.85,411.09 348.24,427.28 336.91,438.94              313.65,462.95 271.40,463.63 248.29,438.94              240.12,430.17 233.46,416.99 232.04,405.00              232.04,405.00 232.04,396.00 232.04,396.00              232.04,396.00 231.00,372.00 231.00,372.00              231.00,372.00 231.66,361.00 231.66,361.00              231.66,361.00 231.04,354.00 231.04,354.00              231.04,354.00 226.27,306.00 226.27,306.00              223.17,284.31 221.63,269.05 202.00,255.00              205.64,242.45 208.82,231.95 204.96,219.00              199.14,199.49 182.25,184.32 182.00,163.00              182.00,163.00 184.96,136.00 184.96,136.00              184.54,122.99 177.52,109.02 186.22,97.09              189.42,92.71 197.61,86.02 202.00,82.42              207.62,77.82 214.44,72.44 221.00,69.32              249.63,55.71 280.39,59.37 305.00,79.42              316.15,88.51 329.59,96.92 328.96,113.00              328.59,122.48 325.85,125.92 326.00,139.00              326.16,152.74 331.68,157.46 327.24,174.00              323.40,188.35 309.08,205.97 305.24,220.00              303.63,227.20 303.53,232.73 305.24,240.00              305.66,243.24 308.16,251.20 307.31,253.96              306.51,256.57 301.68,260.55 299.62,263.01              295.10,268.40 290.95,275.29 288.75,282.00              286.13,289.99 283.81,310.85 282.84,320.00              282.84,320.00 279.91,350.00 279.91,350.00              279.91,350.00 279.00,362.00 279.00,362.00              279.00,362.00 279.00,386.00 279.00,386.00              279.01,391.26 279.22,396.18 281.68,401.00              287.84,413.03 301.35,417.63 313.00,410.52              316.35,408.47 318.48,406.36 320.52,403.00              321.66,401.12 323.01,397.14 324.56,396.02              326.29,394.76 329.90,395.00 332.00,395.00              332.00,395.00 354.00,395.00 354.00,395.00 Z            M 167.00,105.00            C 164.97,116.35 169.02,125.11 169.00,138.00              168.99,146.96 167.88,146.90 167.08,154.00              167.08,154.00 167.08,164.00 167.08,164.00              167.03,180.74 175.59,193.73 183.31,208.00              185.45,211.95 187.95,215.74 189.45,220.00              193.74,232.14 187.41,254.24 182.80,266.00              182.80,266.00 177.20,278.87 177.20,278.87              174.02,283.77 166.68,280.61 162.00,279.58              147.67,276.41 133.48,272.10 120.00,266.28              64.92,242.52 26.94,198.15 15.00,139.00              15.00,139.00 76.00,118.31 76.00,118.31              95.48,111.37 115.55,98.77 136.00,99.00              143.66,99.09 159.36,102.79 167.00,105.00 Z            M 497.00,139.00            C 484.79,199.70 446.39,242.70 390.00,266.85              376.83,272.49 362.99,276.50 349.00,279.63              344.90,280.48 337.08,283.26 333.97,279.63              331.89,277.30 326.81,263.61 325.72,260.00              325.72,260.00 319.18,232.00 319.18,232.00              318.42,221.97 326.36,209.61 331.14,201.00              339.41,186.09 344.20,177.55 344.00,160.00              344.00,160.00 341.09,138.00 341.09,138.00              340.74,131.86 342.92,125.08 343.86,119.00              343.86,119.00 343.86,105.00 343.86,105.00              353.81,103.03 366.36,99.11 376.00,99.00              395.73,98.78 408.28,107.83 426.00,114.58              426.00,114.58 497.00,139.00 497.00,139.00 Z            M 191.02,158.74            C 185.00,162.14 184.48,168.92 189.23,171.83              192.28,173.70 194.96,172.04 198.70,175.31              203.37,179.40 206.91,188.63 214.89,185.26              222.53,182.04 217.56,173.35 214.37,169.00              209.20,161.95 208.34,158.12 199.00,158.00              195.53,157.96 194.42,157.91 191.02,158.74 Z            M 307.04,158.74            C 302.67,161.22 294.16,172.00 293.29,177.00              292.24,183.06 297.06,187.53 303.00,185.40              308.36,183.47 310.75,176.39 315.09,174.02              318.31,172.27 322.42,173.74 324.83,169.77              325.78,168.21 326.07,165.79 325.67,164.02              323.99,156.56 312.70,157.35 307.04,158.74 Z            M 198.00,270.00            C 202.90,276.14 210.55,287.61 209.01,296.00              208.23,300.26 201.36,305.85 198.00,308.48              184.13,319.35 170.06,322.93 153.00,318.00              159.20,315.34 164.47,316.06 173.00,309.47              188.29,297.68 191.96,279.29 198.00,270.00 Z            M 314.00,271.00            C 315.39,276.15 317.38,280.26 319.75,285.00              327.65,300.79 338.76,316.06 358.00,317.00              353.97,319.73 350.76,319.94 346.00,320.00              331.16,320.17 323.79,317.22 312.00,307.99              309.31,305.88 304.32,301.84 302.64,299.00              298.36,291.76 307.21,274.50 314.00,271.00 Z            M 360.00,377.00            C 360.00,377.00 360.00,379.00 360.00,379.00              360.00,379.00 319.00,379.00 319.00,379.00              319.00,379.00 319.00,377.00 319.00,377.00              319.00,377.00 360.00,377.00 360.00,377.00 Z" />
  <path
     style="fill:#000000;stroke:none;stroke-width:0.612944"
     d="m 304.84275,503.22744 c -13.92938,-1.31973 -27.56342,-6.14061 -39.27055,-13.8857 -5.74006,-3.79746 -16.58702,-14.62119 -20.1874,-20.14418 -5.6688,-8.69594 -9.90933,-18.69358 -12.21435,-28.79703 -1.32837,-5.82254 -1.40284,-7.43376 -1.48744,-32.17958 -0.0865,-25.31565 -0.15251,-26.66364 -2.33935,-47.80966 -1.23767,-11.96774 -2.31869,-22.27422 -2.40227,-22.90331 -0.12414,-0.93433 -0.93818,-0.48535 -4.44521,2.45177 -10.85078,9.08747 -22.80015,14.85583 -34.77668,16.78785 -6.51695,1.0513 -17.85211,0.50311 -24.36982,-1.17857 -7.35752,-1.89837 -17.83792,-7.18405 -22.38835,-11.29133 -3.89069,-3.51178 -6.6721,-7.8652 -7.31475,-11.4489 -0.57929,-3.23038 1.68856,-7.25152 5.18532,-9.19417 2.6251,-1.45839 3.12811,-1.51902 10.42006,-1.25601 14.06996,0.50749 14.08953,0.50525 21.44781,-2.44726 3.7112,-1.48912 6.74763,-2.9002 6.74763,-3.13574 0,-0.75887 -6.525,-2.89958 -16.42375,-5.38826 C 109.11111,298.35581 69.538509,274.06412 40.203194,237.24157 23.78229,216.62957 10.009656,188.73871 2.9583522,161.81731 1.4757379,156.15679 1.2698282,154.2331 1.2492668,145.85027 l -0.023378,-9.53112 2.3457214,-4.74754 c 2.940626,-5.95159 8.5421068,-11.7408 17.8814428,-18.48074 3.708314,-2.67618 21.499024,-15.622419 39.534912,-28.769416 18.035889,-13.146997 35.412862,-25.664525 38.615496,-27.816729 14.790689,-9.939503 26.744219,-13.79824 42.906109,-13.850589 10.39484,-0.03367 17.77339,1.359832 66.07221,12.478306 8.86448,2.04062 17.33355,3.710218 18.82015,3.710218 1.48661,0 4.57728,-0.711068 6.86817,-1.58015 14.94784,-5.670679 23.25702,-7.242327 38.18367,-7.222291 13.87372,0.01862 18.20579,0.769684 33.58355,5.822456 l 11.21108,3.683698 10.54845,-2.253187 c 5.80164,-1.239253 14.54791,-3.205273 19.43614,-4.368934 13.70596,-3.262753 32.61765,-7.351961 41.07886,-8.882336 17.33347,-3.135096 33.13802,-1.150418 47.18513,5.925335 7.30096,3.677613 12.49261,7.269966 49.64849,34.354203 18.03589,13.146997 35.8266,26.093236 39.53491,28.769416 9.29007,6.70438 14.94364,12.53519 17.84373,18.40312 2.17388,4.39854 2.32351,5.07486 2.57471,11.6378 0.14669,3.83232 -0.0601,9.20293 -0.45953,11.93468 -2.23432,15.2806 -12.25039,40.02946 -21.42417,52.93733 -2.86581,4.03229 -4.72346,7.39252 -5.59117,10.11358 -2.32002,7.27547 -9.13317,17.19859 -19.75143,28.76727 -17.55873,19.13038 -37.49492,33.99117 -61.45613,45.81047 -15.98644,7.88561 -21.09223,9.76017 -47.4279,17.41284 -11.58922,3.36761 -21.22011,6.27174 -21.40198,6.45361 -0.45196,0.45196 -0.48648,0.43293 5.39014,2.97125 7.44478,3.21566 10.12586,3.66374 18.38833,3.07323 3.87688,-0.27708 8.26906,-0.41597 9.76042,-0.30865 11.10188,0.79893 12.88151,11.89838 3.39634,21.18274 -10.9304,10.699 -31.89434,16.21623 -49.16702,12.93966 -11.38746,-2.16016 -19.01232,-5.8699 -33.66147,-16.37736 -1.40487,-1.00768 -2.8244,-1.66523 -3.1545,-1.46122 -0.33011,0.20402 -0.92847,2.23412 -1.3297,4.51135 -2.1753,12.34624 -2.56682,18.77275 -2.89087,47.45176 l -0.33009,29.21362 2.48074,2.65949 c 2.22381,2.38405 2.76952,2.65948 5.26905,2.65948 2.21776,0 3.12979,-0.34149 4.45718,-1.66888 2.17955,-2.17955 2.14907,-4.48803 -0.13177,-9.97706 -1.55979,-3.75377 -1.78411,-5.05756 -1.7928,-10.42038 -0.009,-5.48801 0.17062,-6.4988 1.71465,-9.65469 1.33981,-2.73846 2.36403,-3.90081 4.59059,-5.2097 l 2.86601,-1.68478 26.96955,-0.18376 c 29.26261,-0.19938 30.44843,-0.0936 34.27253,3.05859 3.63801,2.99876 4.20203,4.72413 4.3682,13.36263 0.16205,8.42439 -0.12126,9.593 -3.52531,14.54161 -2.00618,2.91648 -2.14215,3.47359 -3.18673,13.0563 -1.26031,11.5617 -2.52072,16.87009 -5.82589,24.53648 -12.46515,28.91319 -38.59166,46.9098 -70.54126,48.59064 -3.20264,0.16849 -8.21117,0.0801 -11.13008,-0.19648 z m 16.38035,-15.36811 c 9.82008,-1.36584 20.92919,-5.51759 28.94594,-10.81783 8.6544,-5.7218 17.16542,-15.8726 21.89936,-26.11858 3.43572,-7.43617 6.42475,-20.66514 6.42475,-28.43493 v -2.00815 l -15.17037,0.009 c -10.9279,0.006 -15.59508,0.22393 -16.68904,0.77746 -0.86018,0.43523 -2.59862,2.7298 -4.00935,5.29194 -4.14682,7.53136 -8.87834,11.46068 -16.0781,13.35214 -12.70291,3.33721 -25.85181,-6.75203 -27.71956,-21.26941 -0.90294,-7.01824 -0.73988,-28.63982 0.31059,-41.18356 2.81817,-33.65216 6.44198,-63.65441 8.80293,-72.88133 2.35525,-9.20463 7.47115,-18.18118 14.81382,-25.9929 7.11572,-7.57025 6.97166,-6.89433 4.25673,-19.97368 -2.02672,-9.76388 -2.27208,-15.29476 -0.95431,-21.51244 1.2752,-6.01683 3.70936,-11.35172 12.00203,-26.30465 4.09092,-7.37652 8.3726,-15.7042 9.51486,-18.50594 4.19323,-10.28518 4.9558,-19.35471 2.5979,-30.89778 -1.85629,-9.08746 -1.8186,-20.47872 0.0999,-30.17656 1.72364,-8.71306 1.54554,-16.90332 -0.48076,-22.10804 -1.9444,-4.99434 -7.08709,-11.291944 -13.94292,-17.074126 -18.84452,-15.893427 -30.80062,-22.484622 -47.00744,-25.914428 -8.40904,-1.77958 -22.6603,-1.903699 -31.09692,-0.270832 -11.14182,2.156447 -21.74904,6.274271 -29.74455,11.547121 -6.22927,4.108053 -20.08804,15.341212 -25.55418,20.712818 -9.23625,9.076527 -10.66283,15.759567 -7.53073,35.279007 l 1.66457,10.37373 -1.59713,14.50846 c -1.8528,16.83094 -1.90311,18.5663 -0.7035,24.26902 1.58937,7.55563 4.84897,15.00678 11.98584,27.39858 14.2422,24.72885 16.05107,34.69187 10.09226,55.5868 -0.83528,2.92896 -1.51869,5.73786 -1.51869,6.24201 0,0.50416 1.6962,2.24512 3.76933,3.8688 4.8328,3.78508 10.27103,10.24028 12.99653,15.42692 5.46618,10.40216 7.3454,20.47097 11.39959,61.07856 2.62668,26.30942 2.99922,31.78268 3.00385,44.132 0.003,7.75374 0.26381,20.02796 0.5798,27.27602 0.53428,12.25549 0.70792,13.58606 2.47969,19.00128 4.56849,13.96308 12.46413,25.36101 23.01311,33.22107 13.44168,10.01542 31.7276,14.51485 49.1442,12.09242 z m 63.3995,-84.54193 v -1.83883 h -22.67895 -22.67894 v 1.83883 1.83883 h 22.67894 22.67895 z M 193.07748,340.03866 c 2.35983,-0.83513 5.94556,-2.36025 7.96827,-3.38917 8.68997,-4.42042 19.70444,-13.81829 22.02227,-18.79003 2.15404,-4.62043 0.20882,-12.99871 -4.99194,-21.50085 -2.87841,-4.70561 -6.42988,-9.50064 -7.0367,-9.50064 -0.45371,0 -3.35641,5.79977 -9.32584,18.63361 -3.96725,8.52929 -8.74248,15.41205 -14.35771,20.69446 -5.58073,5.24994 -9.9696,7.76633 -17.26377,9.89824 -2.86551,0.83753 -6.0375,1.84619 -7.04886,2.24147 -1.6372,0.63988 -1.71873,0.7859 -0.74357,1.33164 2.86904,1.60563 8.92825,2.33563 17.59954,2.12034 7.53286,-0.18702 9.54176,-0.45212 13.17831,-1.73907 z m 186.92003,0.13328 c 3.86896,-1.9928 4.26032,-3.05253 1.12728,-3.05253 -3.65285,0 -9.21189,-1.61481 -14.26008,-4.14232 -5.98206,-2.99507 -13.26739,-10.09178 -18.40005,-17.92368 -4.09342,-6.24612 -10.25399,-18.49896 -11.942,-23.7516 -0.56877,-1.76987 -1.34322,-3.21795 -1.72098,-3.21795 -1.40445,0 -7.58121,7.19309 -9.73728,11.33947 -4.29429,8.25841 -5.27395,14.83862 -2.93006,19.68048 2.1971,4.5386 14.70261,14.45525 23.56629,18.68765 7.01981,3.35196 11.76258,4.21094 22.39148,4.05538 8.1777,-0.11968 9.15216,-0.25677 11.9054,-1.6749 z M 188.01027,299.74902 c 1.41315,-1.11158 3.33452,-5.02972 7.97469,-16.26225 5.02541,-12.1651 8.81184,-30.67392 8.27593,-40.45433 -0.40004,-7.30064 -1.47937,-10.09725 -9.34337,-24.20912 -7.91099,-14.1962 -11.49906,-21.78251 -13.6157,-28.78787 -2.17358,-7.19379 -2.7147,-23.73878 -1.07437,-32.84901 1.21405,-6.74266 0.99575,-15.82549 -0.62529,-26.01634 -0.81934,-5.15086 -1.31183,-16.75726 -0.80759,-19.03209 0.38767,-1.74887 -26.04332,-7.32452 -34.72145,-7.32452 -10.98413,0 -22.16942,3.22876 -44.776131,12.92513 -10.684883,4.58292 -24.188023,9.53028 -49.342022,18.07824 l -34.631358,11.76862 0.208308,2.05912 c 0.336515,3.32645 3.623741,15.58132 6.278127,23.40504 6.666023,19.64789 17.471591,39.42504 30.366267,55.57861 5.884464,7.37166 20.830574,22.20878 28.425874,28.21861 24.089925,19.06127 50.403855,31.5804 85.505745,40.68023 14.46116,3.74892 19.33279,4.24314 21.90234,2.22193 z m 189.40506,-1.79323 c 13.46479,-3.33484 24.58692,-6.77858 33.76977,-10.45612 58.31564,-23.35417 98.07786,-64.72715 114.77953,-119.42923 2.78229,-9.11269 5.25534,-19.89774 4.67703,-20.39666 -0.24463,-0.21105 -13.9602,-5.01056 -30.47905,-10.6656 -42.38577,-14.51027 -47.9863,-16.53071 -57.3103,-20.67516 -19.63812,-8.72901 -26.37059,-10.76768 -37.38961,-11.32197 -8.23555,-0.41427 -11.92713,0.0705 -27.73439,3.64199 l -11.49137,2.59636 -0.004,7.04886 c -0.002,5.01124 -0.44183,9.26368 -1.51937,14.71067 -1.91523,9.68158 -1.91091,12.97866 0.0362,27.63654 2.89271,21.77613 0.88733,29.99272 -13.52545,55.41742 -8.55528,15.09185 -11.34701,22.15953 -11.34701,28.72661 0,5.34652 5.97671,31.0288 9.29081,39.92316 3.37398,9.05508 6.24005,14.63005 7.97396,15.51065 2.38616,1.21185 9.38547,0.42898 20.2729,-2.26752 z M 64.100889,115.2919 c 17.33514,-6.03605 36.207461,-13.0315 41.938491,-15.545437 17.96036,-7.878397 22.86037,-9.035314 38.2097,-9.021512 9.72304,0.0087 10.7274,0.127498 20.93943,2.475893 5.89959,1.35669 12.55597,2.63106 14.79196,2.831935 l 4.06544,0.365225 5.12872,-4.888102 c 2.82081,-2.688456 7.74907,-7.181133 10.95171,-9.983726 7.22863,-6.325705 10.83849,-10.31109 9.70547,-10.715119 -0.44978,-0.160389 -8.8167,-2.081481 -18.59317,-4.269094 -9.77646,-2.187613 -21.22319,-4.812623 -25.43719,-5.833356 -16.25531,-3.937438 -30.65651,-3.949745 -42.38854,-0.03622 -8.84173,2.949383 -10.05526,3.728832 -40.665419,26.119399 -10.113583,7.397833 -23.215269,16.933354 -29.114858,21.190044 -11.49506,8.29396 -19.777665,15.07363 -20.839829,17.0583 -0.360996,0.67453 -0.556005,1.22641 -0.433355,1.22641 0.122651,0 14.406298,-4.93858 31.74144,-10.97464 z m 449.239741,9.74823 c -1.06656,-1.99289 -9.36956,-8.77604 -20.83982,-17.02512 -5.89959,-4.24282 -20.45317,-14.851418 -32.34127,-23.574669 -11.88811,-8.72325 -23.61068,-17.039913 -26.05014,-18.481474 -8.99413,-5.314927 -16.51757,-7.541183 -27.49328,-8.13551 l -7.12132,-0.385615 -32.25959,6.678667 c -17.74276,3.673266 -32.25992,6.84027 -32.26034,7.037784 -0.002,1.076768 4.97725,6.459747 9.36816,10.127128 2.76939,2.313061 7.56176,6.623277 10.64971,9.578256 l 5.61443,5.37269 h 3.41208 c 1.87664,0 8.91158,-1.241212 15.63321,-2.75825 11.80224,-2.663703 12.56776,-2.75825 22.33297,-2.75825 15.15033,0 20.32581,1.212851 37.49569,8.786947 7.61004,3.356996 71.81511,26.531506 74.03459,26.722426 0.2647,0.0227 0.18592,-0.51048 -0.17508,-1.18501 z"
     id="path122"
     transform="scale(0.93749985)" />
  <path
     style="fill:#000000;stroke-width:0.612944"
     d="m 315.94465,195.68249 c -2.76464,-2.47041 -3.05014,-5.69997 -0.88211,-9.97837 2.27541,-4.49031 5.59946,-8.85987 9.61901,-12.64447 2.98978,-2.81503 3.74512,-3.21021 6.88596,-3.60263 9.88986,-1.23565 15.714,2.11691 14.85129,8.54888 -0.41791,3.11574 -2.44983,4.98919 -6.04603,5.57451 -4.42965,0.72097 -6.46644,2.08359 -10.62139,7.10576 -2.19323,2.651 -4.79781,5.23893 -5.78796,5.75096 -2.84425,1.47082 -5.84421,1.1885 -8.01877,-0.75464 z"
     id="path124"
     transform="scale(0.93749985)" />
  <path
     style="fill:#000000;stroke-width:0.612944"
     d="m 221.56844,195.91701 c -1.17389,-0.79809 -3.45257,-3.12955 -5.06372,-5.18102 -3.76061,-4.78836 -5.46217,-5.95898 -10.27932,-7.07185 -4.85517,-1.12165 -6.71201,-2.95567 -6.71201,-6.62951 0,-2.0603 0.39695,-2.88665 2.30148,-4.79118 1.86173,-1.86173 2.92533,-2.38728 5.56644,-2.75053 3.83395,-0.5273 9.54646,0.0745 11.80791,1.24395 4.50208,2.32811 13.42317,16.19239 13.42317,20.86095 0,4.99652 -6.37847,7.49109 -11.04395,4.31919 z"
     id="path126"
     transform="scale(0.93749985)" />
</svg>
