<?xml version="1.0" encoding="UTF-8" standalone="no"?>
<!DOCTYPE svg PUBLIC "-//W3C//DTD SVG 20010904//EN"
              "http://www.w3.org/TR/2001/REC-SVG-20010904/DTD/svg10.dtd">

<svg xmlns="http://www.w3.org/2000/svg"
     width="5.68889in" height="5.68889in"
     viewBox="0 0 512 512">
  <path id="Selection #1"
        fill="none" stroke="black" stroke-width="1"
        d="M 165.00,297.00
           C 150.05,303.43 153.33,301.95 138.00,301.09
             126.28,300.43 120.31,309.58 127.42,319.00
             132.21,325.35 139.63,329.62 147.00,332.31
             170.85,340.99 193.73,333.73 212.00,317.00
             212.00,317.00 216.00,357.00 216.00,357.00
             216.00,357.00 217.00,377.00 217.00,377.00
             217.00,377.00 216.00,392.00 216.00,392.00
             215.98,405.86 217.16,415.05 222.62,428.00
             243.22,476.93 310.11,487.86 346.99,450.99
             357.03,440.94 364.70,426.95 367.55,413.00
             367.55,413.00 369.59,395.00 369.59,395.00
             370.80,391.59 373.51,389.92 374.78,386.00
             375.03,384.29 374.99,381.80 374.78,380.00
             375.03,373.05 375.96,367.18 368.98,363.09
             365.21,360.87 361.21,361.01 357.00,361.00
             357.00,361.00 322.00,361.00 322.00,361.00
             315.86,361.01 308.85,361.06 305.30,367.09
             302.59,371.70 302.41,381.00 304.11,386.00
             305.29,389.50 309.00,394.05 304.76,396.95
             300.64,399.76 296.35,396.10 295.16,392.00
             294.94,390.54 295.00,387.59 295.16,386.00
             294.96,366.99 294.62,335.96 299.00,318.00
             305.08,322.06 310.37,326.42 317.00,329.73
             330.78,336.62 346.31,337.69 361.00,333.28
             369.13,330.84 379.33,325.40 383.71,318.00
             386.28,314.03 387.08,308.04 383.71,304.42
             378.19,298.85 368.78,302.13 362.00,301.98
             355.05,301.84 352.16,299.65 346.00,297.00
             346.00,297.00 385.00,285.66 385.00,285.66
             407.48,277.85 428.56,266.48 447.00,251.39
             459.76,240.95 474.35,226.13 482.93,212.00
             486.62,205.93 485.51,204.24 488.00,200.00
             488.00,200.00 494.45,191.00 494.45,191.00
             501.98,177.77 511.82,154.28 512.00,139.00
             512.05,134.01 512.17,129.80 510.45,125.00
             506.30,113.37 491.65,105.10 482.00,97.87
             482.00,97.87 436.00,64.29 436.00,64.29
             414.96,49.23 403.62,38.68 376.00,39.00
             365.73,39.12 330.75,47.49 319.00,50.37
             319.00,50.37 297.27,55.00 297.27,55.00
             297.27,55.00 281.00,49.43 281.00,49.43
             268.77,45.94 264.36,45.98 252.00,46.00
             243.15,46.01 234.44,47.83 226.00,50.44
             220.47,52.15 216.94,55.11 211.00,54.35
             211.00,54.35 192.00,50.13 192.00,50.13
             180.25,47.28 146.28,39.12 136.00,39.00
             108.41,38.69 97.00,49.26 76.00,64.29
             76.00,64.29 30.00,97.87 30.00,97.87
             20.35,105.10 5.70,113.37 1.55,125.00
             -0.17,129.80 -0.05,134.01 0.00,139.00
             0.12,148.86 5.54,164.66 9.20,174.00
             21.30,204.81 38.67,229.29 64.00,250.71
             80.19,264.39 103.93,277.69 124.00,284.66
             124.00,284.66 142.00,290.57 142.00,290.57
             148.89,292.54 158.94,294.14 165.00,297.00 Z
           M 196.00,67.00
           C 191.59,72.87 184.45,77.54 179.01,83.00
             176.86,85.17 173.98,89.02 170.91,89.52
             168.63,89.88 159.81,87.60 157.00,87.00
             143.36,84.08 146.28,83.98 132.00,84.00
             115.11,84.03 104.00,90.76 89.00,97.15
             89.00,97.15 32.00,117.00 32.00,117.00
             36.70,111.36 55.91,98.33 63.00,93.12
             63.00,93.12 91.00,72.63 91.00,72.63
             96.13,68.82 105.42,61.82 111.00,59.46
             122.01,54.82 127.44,54.87 139.00,55.00
             145.94,55.09 154.15,57.49 161.00,59.12
             161.00,59.12 196.00,67.00 196.00,67.00 Z
           M 480.00,117.00
           C 480.00,117.00 423.00,97.15 423.00,97.15
             408.00,90.76 396.89,84.03 380.00,84.00
             365.56,83.98 367.83,84.23 354.00,87.21
             350.92,87.87 342.73,90.10 340.04,89.60
             336.72,88.97 334.28,85.34 331.96,83.04
             326.17,77.28 319.88,73.76 315.00,67.00
             315.00,67.00 373.00,55.00 373.00,55.00
             382.24,54.90 386.99,54.55 396.00,57.52
             405.75,60.73 413.84,67.34 422.00,73.37
             422.00,73.37 450.00,93.87 450.00,93.87
             457.24,99.29 475.10,111.12 480.00,117.00 Z
           M 354.00,395.00
           C 353.85,411.09 348.24,427.28 336.91,438.94
             313.65,462.95 271.40,463.63 248.29,438.94
             240.12,430.17 233.46,416.99 232.04,405.00
             232.04,405.00 232.04,396.00 232.04,396.00
             232.04,396.00 231.00,372.00 231.00,372.00
             231.00,372.00 231.66,361.00 231.66,361.00
             231.66,361.00 231.04,354.00 231.04,354.00
             231.04,354.00 226.27,306.00 226.27,306.00
             223.17,284.31 221.63,269.05 202.00,255.00
             205.64,242.45 208.82,231.95 204.96,219.00
             199.14,199.49 182.25,184.32 182.00,163.00
             182.00,163.00 184.96,136.00 184.96,136.00
             184.54,122.99 177.52,109.02 186.22,97.09
             189.42,92.71 197.61,86.02 202.00,82.42
             207.62,77.82 214.44,72.44 221.00,69.32
             249.63,55.71 280.39,59.37 305.00,79.42
             316.15,88.51 329.59,96.92 328.96,113.00
             328.59,122.48 325.85,125.92 326.00,139.00
             326.16,152.74 331.68,157.46 327.24,174.00
             323.40,188.35 309.08,205.97 305.24,220.00
             303.63,227.20 303.53,232.73 305.24,240.00
             305.66,243.24 308.16,251.20 307.31,253.96
             306.51,256.57 301.68,260.55 299.62,263.01
             295.10,268.40 290.95,275.29 288.75,282.00
             286.13,289.99 283.81,310.85 282.84,320.00
             282.84,320.00 279.91,350.00 279.91,350.00
             279.91,350.00 279.00,362.00 279.00,362.00
             279.00,362.00 279.00,386.00 279.00,386.00
             279.01,391.26 279.22,396.18 281.68,401.00
             287.84,413.03 301.35,417.63 313.00,410.52
             316.35,408.47 318.48,406.36 320.52,403.00
             321.66,401.12 323.01,397.14 324.56,396.02
             326.29,394.76 329.90,395.00 332.00,395.00
             332.00,395.00 354.00,395.00 354.00,395.00 Z
           M 167.00,105.00
           C 164.97,116.35 169.02,125.11 169.00,138.00
             168.99,146.96 167.88,146.90 167.08,154.00
             167.08,154.00 167.08,164.00 167.08,164.00
             167.03,180.74 175.59,193.73 183.31,208.00
             185.45,211.95 187.95,215.74 189.45,220.00
             193.74,232.14 187.41,254.24 182.80,266.00
             182.80,266.00 177.20,278.87 177.20,278.87
             174.02,283.77 166.68,280.61 162.00,279.58
             147.67,276.41 133.48,272.10 120.00,266.28
             64.92,242.52 26.94,198.15 15.00,139.00
             15.00,139.00 76.00,118.31 76.00,118.31
             95.48,111.37 115.55,98.77 136.00,99.00
             143.66,99.09 159.36,102.79 167.00,105.00 Z
           M 497.00,139.00
           C 484.79,199.70 446.39,242.70 390.00,266.85
             376.83,272.49 362.99,276.50 349.00,279.63
             344.90,280.48 337.08,283.26 333.97,279.63
             331.89,277.30 326.81,263.61 325.72,260.00
             325.72,260.00 319.18,232.00 319.18,232.00
             318.42,221.97 326.36,209.61 331.14,201.00
             339.41,186.09 344.20,177.55 344.00,160.00
             344.00,160.00 341.09,138.00 341.09,138.00
             340.74,131.86 342.92,125.08 343.86,119.00
             343.86,119.00 343.86,105.00 343.86,105.00
             353.81,103.03 366.36,99.11 376.00,99.00
             395.73,98.78 408.28,107.83 426.00,114.58
             426.00,114.58 497.00,139.00 497.00,139.00 Z
           M 191.02,158.74
           C 185.00,162.14 184.48,168.92 189.23,171.83
             192.28,173.70 194.96,172.04 198.70,175.31
             203.37,179.40 206.91,188.63 214.89,185.26
             222.53,182.04 217.56,173.35 214.37,169.00
             209.20,161.95 208.34,158.12 199.00,158.00
             195.53,157.96 194.42,157.91 191.02,158.74 Z
           M 307.04,158.74
           C 302.67,161.22 294.16,172.00 293.29,177.00
             292.24,183.06 297.06,187.53 303.00,185.40
             308.36,183.47 310.75,176.39 315.09,174.02
             318.31,172.27 322.42,173.74 324.83,169.77
             325.78,168.21 326.07,165.79 325.67,164.02
             323.99,156.56 312.70,157.35 307.04,158.74 Z
           M 198.00,270.00
           C 202.90,276.14 210.55,287.61 209.01,296.00
             208.23,300.26 201.36,305.85 198.00,308.48
             184.13,319.35 170.06,322.93 153.00,318.00
             159.20,315.34 164.47,316.06 173.00,309.47
             188.29,297.68 191.96,279.29 198.00,270.00 Z
           M 314.00,271.00
           C 315.39,276.15 317.38,280.26 319.75,285.00
             327.65,300.79 338.76,316.06 358.00,317.00
             353.97,319.73 350.76,319.94 346.00,320.00
             331.16,320.17 323.79,317.22 312.00,307.99
             309.31,305.88 304.32,301.84 302.64,299.00
             298.36,291.76 307.21,274.50 314.00,271.00 Z
           M 360.00,377.00
           C 360.00,377.00 360.00,379.00 360.00,379.00
             360.00,379.00 319.00,379.00 319.00,379.00
             319.00,379.00 319.00,377.00 319.00,377.00
             319.00,377.00 360.00,377.00 360.00,377.00 Z" />
</svg>
